HIERARCHY
ROOT Hips
{
	OFFSET 0.000000 0.000000 0.000000
	CHANNELS 6 Xposition Yposition Zposition Zrotation Yrotation Xrotation 
	JOINT LowerBack
	{
		OFFSET 0.000000 0.000000 0.000000
		CHANNELS 3 Zrotation Yrotation Xrotation
		JOINT Spine
		{
			OFFSET 0.028270 2.035590 -0.193380
			CHANNELS 3 Zrotation Yrotation Xrotation
			JOINT Spine1
			{
				OFFSET 0.056720 2.048850 -0.042750
				CHANNELS 3 Zrotation Yrotation Xrotation
				JOINT Neck
				{
					OFFSET 0.000000 0.000000 0.000000
					CHANNELS 3 Zrotation Yrotation Xrotation
					JOINT Neck1
					{
						OFFSET -0.054170 1.746240 0.172020
						CHANNELS 3 Zrotation Yrotation Xrotation
						JOINT Head
						{
							OFFSET 0.104070 1.761360 -0.123970
							CHANNELS 3 Zrotation Yrotation Xrotation
							End Site
							{
								OFFSET 0.000000 0.000000 0.000000
							}
						}
					}
				}
				JOINT LeftShoulder
				{
					OFFSET 0.000000 0.000000 0.000000
					CHANNELS 3 Zrotation Yrotation Xrotation
					JOINT LeftArm
					{
						OFFSET 3.362410 1.200890 -0.311210
						CHANNELS 3 Zrotation Yrotation Xrotation
						JOINT LeftForeArm
						{
							OFFSET 4.983000 -0.000000 -0.000000
							CHANNELS 3 Zrotation Yrotation Xrotation
							JOINT LeftHand
							{
								OFFSET 3.483560 -0.000000 -0.000000
								CHANNELS 3 Zrotation Yrotation Xrotation
								JOINT LeftFingerBase
								{
									OFFSET 0.000000 0.000000 0.000000
									CHANNELS 3 Zrotation Yrotation Xrotation
									JOINT LeftHandIndex1
									{
										OFFSET 0.715260 -0.000000 -0.000000
										CHANNELS 3 Zrotation Yrotation Xrotation
										End Site
										{
											OFFSET 0.000000 0.000000 0.000000
										}
									}
								}
								JOINT LThumb
								{
									OFFSET 0.000000 0.000000 0.000000
									CHANNELS 3 Zrotation Yrotation Xrotation
									End Site
									{
										OFFSET 0.000000 0.000000 0.000000
									}
								}
							}
						}
					}
				}
				JOINT RightShoulder
				{
					OFFSET 0.000000 0.000000 0.000000
					CHANNELS 3 Zrotation Yrotation Xrotation
					JOINT RightArm
					{
						OFFSET -3.136600 1.374050 -0.404650
						CHANNELS 3 Zrotation Yrotation Xrotation
						JOINT RightForeArm
						{
							OFFSET -5.241900 -0.000000 -0.000000
							CHANNELS 3 Zrotation Yrotation Xrotation
							JOINT RightHand
							{
								OFFSET -3.444170 -0.000000 -0.000000
								CHANNELS 3 Zrotation Yrotation Xrotation
								JOINT RightFingerBase
								{
									OFFSET 0.000000 0.000000 0.000000
									CHANNELS 3 Zrotation Yrotation Xrotation
									JOINT RightHandIndex1
									{
										OFFSET -0.622530 -0.000000 -0.000000
										CHANNELS 3 Zrotation Yrotation Xrotation
										End Site
										{
											OFFSET 0.000000 0.000000 0.000000
										}
									}
								}
								JOINT RThumb
								{
									OFFSET 0.000000 0.000000 0.000000
									CHANNELS 3 Zrotation Yrotation Xrotation
									End Site
									{
										OFFSET 0.000000 0.000000 0.000000
									}
								}
							}
						}
					}
				}
			}
		}
	}
}
}
MOTION
Frames: 18
Frame Time: 0.008333
-12.515079 17.035131 -1.283934 38.400475 87.852119 62.125307 4.534058 -1.728969 4.027593 -0.105425 -1.875618 -2.023091 -7.486048 -1.959539 0.842477 10.276954 3.851354 4.820456 -4.824586 -0.408863 2.981041 0.000000 0.000000 0.000000 -7.626909 -8.364681 2.384854 -56.212552 -28.741801 13.776033 -3.295579 -32.768155 -0.015899 7.487037 -2.946802 -0.208994 -0.152440 0.197758 0.000000 0.000000 0.000000 0.000000 0.000000 0.000000 0.000000 20.858897 -0.427850 0.367611 58.479046 12.477977 -6.369960 2.895323 23.616934 0.007483 -0.418155 7.175035 -0.030044 0.060127 -0.073497 -0.000000 0.000000 0.000000 0.000000 0.000000 0.000000 0.000000 
-12.357943 17.045304 -1.271463 30.250798 88.149725 54.097587 5.266169 -1.660161 4.000535 0.050655 -1.835342 -2.055266 -7.424328 -1.928616 0.794930 10.224219 4.118014 4.825396 -4.817242 -0.408249 2.986008 0.000000 0.000000 0.000000 -7.837737 -8.237619 2.329196 -57.320281 -27.510404 13.605585 -3.271231 -31.803555 -0.015595 7.601527 -2.961881 -0.212446 -0.145956 0.189465 0.000000 0.000000 0.000000 0.000000 0.000000 0.000000 0.000000 20.744989 -0.198397 0.385669 58.371138 12.755708 -6.910231 2.952784 22.685148 0.007654 -0.506083 7.128451 -0.035549 0.062806 -0.072889 -0.000000 0.000000 0.000000 0.000000 0.000000 0.000000 0.000000 
-12.203324 17.057855 -1.255916 16.139834 88.497952 40.094919 6.058436 -1.605711 4.002371 0.220511 -1.804187 -2.078978 -7.366305 -1.906429 0.740427 10.223129 4.400500 4.838087 -4.804340 -0.407391 2.992866 0.000000 0.000000 0.000000 -7.927368 -8.128054 2.270492 -58.469097 -26.247620 13.374401 -3.231352 -30.776870 -0.015440 7.727442 -2.947186 -0.214205 -0.138748 0.181337 0.000000 0.000000 0.000000 0.000000 0.000000 0.000000 0.000000 20.652349 0.048414 0.401413 58.313732 13.074727 -7.497073 3.009966 21.715933 0.007800 -0.558621 7.047191 -0.038553 0.065272 -0.072154 -0.000000 0.000000 0.000000 0.000000 0.000000 0.000000 0.000000 
-12.051390 17.071988 -1.236396 -7.641992 89.165853 16.392740 6.940406 -1.678603 4.000727 0.441650 -1.887189 -2.098239 -7.305296 -1.998553 0.685890 10.298461 4.670696 4.860779 -4.782990 -0.406442 3.002757 0.000000 0.000000 0.000000 -7.889097 -8.118142 2.228974 -59.651302 -24.938190 13.087270 -3.183178 -29.710346 -0.015410 7.848470 -2.900525 -0.213661 -0.131428 0.173969 0.000000 0.000000 0.000000 0.000000 0.000000 0.000000 0.000000 20.593856 0.234740 0.403286 58.295825 13.440934 -8.093334 3.061071 20.715082 0.007885 -0.589091 6.938369 -0.039959 0.067299 -0.070879 -0.000000 0.000000 0.000000 0.000000 0.000000 0.000000 0.000000 
-11.902161 17.087069 -1.212664 137.197279 89.805429 161.269625 7.223024 -1.936730 3.973757 0.582007 -2.140662 -2.126247 -7.207880 -2.261744 0.652376 10.461078 4.903556 4.875550 -4.749142 -0.405560 3.009976 0.000000 0.000000 0.000000 -7.722596 -8.227929 2.199934 -60.827212 -23.604003 12.781660 -3.144680 -28.642217 -0.015319 7.945300 -2.813244 -0.209509 -0.125711 0.167019 0.000000 0.000000 0.000000 0.000000 0.000000 0.000000 0.000000 20.592022 0.316449 0.393461 58.330892 13.862175 -8.675262 3.092179 19.687392 0.007800 -0.607486 6.810276 -0.040367 0.067989 -0.068872 -0.000000 0.000000 0.000000 0.000000 0.000000 0.000000 0.000000 
-11.755571 17.102514 -1.184776 101.290164 89.425704 125.425618 6.977865 -1.956461 4.020219 0.535016 -2.166672 -2.145148 -7.121148 -2.294378 0.614184 10.640405 5.130849 4.874925 -4.721984 -0.404713 3.011732 0.000000 0.000000 0.000000 -7.433556 -8.226931 2.124986 -61.940600 -22.239916 12.487855 -3.092951 -27.627693 -0.014983 8.002626 -2.678935 -0.200766 -0.119512 0.158387 0.000000 0.000000 0.000000 0.000000 0.000000 0.000000 0.000000 20.648445 0.509388 0.414934 58.450172 14.346396 -9.269740 3.125287 18.653222 0.007704 -0.600049 6.658310 -0.039071 0.068610 -0.067837 -0.000000 0.000000 0.000000 0.000000 0.000000 0.000000 0.000000 
-11.611459 17.117999 -1.153195 72.918568 89.378142 97.130095 6.927928 -1.861369 4.097633 0.495755 -2.082815 -2.151437 -7.064002 -2.215345 0.569489 10.846843 5.327451 4.872537 -4.700353 -0.403883 3.013162 0.000000 0.000000 0.000000 -7.072221 -8.195815 2.043537 -62.992477 -20.844214 12.231245 -3.029673 -26.675537 -0.014530 7.999189 -2.489331 -0.186424 -0.112585 0.149338 0.000000 0.000000 0.000000 0.000000 0.000000 0.000000 0.000000 20.744818 0.728383 0.445439 58.610126 14.902483 -9.826752 3.164113 17.621317 0.007652 -0.584497 6.499461 -0.037273 0.069648 -0.067385 -0.000000 0.000000 0.000000 0.000000 0.000000 0.000000 0.000000 
-11.469658 17.133340 -1.118724 50.837964 89.429992 75.123852 7.024514 -1.773359 4.171662 0.486906 -2.004830 -2.152185 -7.022403 -2.141327 0.528116 11.088825 5.486364 4.869233 -4.678995 -0.403083 3.014695 0.000000 0.000000 0.000000 -6.676854 -8.191176 1.975854 -63.967519 -19.437401 12.051288 -2.968185 -25.798942 -0.013952 7.914915 -2.238746 -0.166176 -0.105903 0.140464 0.000000 0.000000 0.000000 0.000000 0.000000 0.000000 0.000000 20.872991 0.914809 0.472565 58.798784 15.506696 -10.331728 3.200580 16.618395 0.007596 -0.567387 6.345534 -0.035475 0.070644 -0.067110 -0.000000 0.000000 0.000000 0.000000 0.000000 0.000000 0.000000 
-11.330012 17.148573 -1.082316 33.654148 89.583257 58.009412 7.200369 -1.723483 4.232298 0.501930 -1.962082 -2.150784 -6.989564 -2.101846 0.492746 11.358516 5.609970 4.864687 -4.656583 -0.402326 3.016184 0.000000 0.000000 0.000000 -6.278678 -8.224477 1.926915 -64.851029 -18.031062 11.973411 -2.914693 -25.013924 -0.013231 7.732842 -1.926561 -0.140321 -0.099826 0.131886 0.000000 0.000000 0.000000 0.000000 0.000000 0.000000 0.000000 21.023836 1.058457 0.493671 59.009934 16.137412 -10.771180 3.231412 15.672522 0.007523 -0.553004 6.205310 -0.033976 0.071414 -0.066933 -0.000000 0.000000 0.000000 0.000000 0.000000 0.000000 0.000000 
-11.192380 17.163877 -1.045171 20.992441 89.845721 45.410914 7.392887 -1.721634 4.275740 0.531167 -1.963877 -2.149574 -6.959895 -2.106346 0.464479 11.642660 5.716764 4.859354 -4.631161 -0.401535 3.017608 0.000000 0.000000 0.000000 -5.913789 -8.278973 1.899150 -65.628291 -16.652278 12.031700 -2.874158 -24.325875 -0.012371 7.441318 -1.552025 -0.109858 -0.094606 0.123658 0.000000 0.000000 0.000000 0.000000 0.000000 0.000000 0.000000 21.178928 1.177286 0.506984 59.244779 16.759311 -11.163644 3.254064 14.818930 0.007429 -0.534549 6.084987 -0.032377 0.071756 -0.066855 -0.000000 0.000000 0.000000 0.000000 0.000000 0.000000 0.000000 
-11.056682 17.179559 -1.008225 -167.965071 89.825207 -143.490333 7.549217 -1.752949 4.309655 0.561404 -1.995943 -2.148671 -6.930424 -2.140684 0.442389 11.926245 5.834652 4.854585 -4.601205 -0.400596 3.019009 0.000000 0.000000 0.000000 -5.613684 -8.317840 1.891852 -66.284257 -15.332976 12.257252 -2.849297 -23.736436 -0.011397 7.034461 -1.112189 -0.075886 -0.090321 0.115732 0.000000 0.000000 0.000000 0.000000 0.000000 0.000000 0.000000 21.318884 1.310714 0.512932 59.509234 17.332019 -11.556198 3.266995 14.094540 0.007322 -0.493625 5.986678 -0.029678 0.071466 -0.066959 -0.000000 0.000000 0.000000 0.000000 0.000000 0.000000 0.000000 
-10.922791 17.195829 -0.972740 -173.702292 89.480028 -149.168356 7.659398 -1.790081 4.335220 0.585205 -2.033417 -2.147661 -6.900970 -2.179958 0.428338 12.192600 5.877867 4.836565 -4.576547 -0.399938 3.016582 0.000000 0.000000 0.000000 -5.357969 -8.403579 1.889318 -66.851230 -14.004088 12.541573 -2.830848 -23.272689 -0.010274 6.518620 -0.657845 -0.043708 -0.086215 0.107821 0.000000 0.000000 0.000000 0.000000 0.000000 0.000000 0.000000 21.471958 1.365738 0.520835 59.755189 17.974107 -11.675615 3.276573 13.433890 0.007237 -0.512744 5.948138 -0.030477 0.071341 -0.067301 -0.000000 0.000000 0.000000 0.000000 0.000000 0.000000 0.000000 
-10.790881 17.213156 -0.939140 -177.443278 89.160827 -152.854281 7.741537 -1.818631 4.367753 0.603572 -2.062073 -2.145147 -6.872174 -2.210144 0.416822 12.431873 5.939855 4.818510 -4.549858 -0.399135 3.013619 0.000000 0.000000 0.000000 -5.192148 -8.446506 1.899613 -67.300828 -12.748342 12.963431 -2.823756 -22.906018 -0.009109 5.904071 -0.169737 -0.013627 -0.082610 0.100084 0.000000 0.000000 0.000000 0.000000 0.000000 0.000000 0.000000 21.594498 1.458957 0.526284 60.018813 18.561541 -11.744887 3.279405 12.920861 0.007169 -0.514824 5.946160 -0.030476 0.070759 -0.067979 -0.000000 0.000000 0.000000 0.000000 0.000000 0.000000 0.000000 
-10.660953 17.231771 -0.907906 -179.682148 88.886953 -155.040948 7.813051 -1.828483 4.410912 0.618389 -2.072316 -2.140016 -6.844723 -2.221624 0.408292 12.637154 5.986211 4.795115 -4.525565 -0.398371 3.008600 0.000000 0.000000 0.000000 -5.104861 -8.468491 1.915986 -67.652200 -11.544388 13.460464 -2.822606 -22.637300 -0.007934 5.214454 0.319684 0.010957 -0.079162 0.092470 0.000000 0.000000 0.000000 0.000000 0.000000 0.000000 0.000000 21.698829 1.551735 0.532418 60.278925 19.144981 -11.641810 3.279110 12.527512 0.007137 -0.531995 5.994961 -0.031672 0.070088 -0.068979 -0.000000 0.000000 0.000000 0.000000 0.000000 0.000000 0.000000 
-10.533057 17.251844 -0.879208 179.143011 88.671152 -156.168614 7.885869 -1.816300 4.468546 0.632172 -2.060678 -2.132605 -6.817552 -2.211102 0.398236 12.804887 6.051411 4.773961 -4.500516 -0.397506 3.003563 0.000000 0.000000 0.000000 -5.098876 -8.450438 1.939334 -67.911397 -10.408922 14.026497 -2.826232 -22.446261 -0.006815 4.481812 0.793431 0.028645 -0.075930 0.085094 0.000000 0.000000 0.000000 0.000000 0.000000 0.000000 0.000000 21.765810 1.684725 0.537962 60.548522 19.678590 -11.436638 3.274886 12.279096 0.007134 -0.541622 6.084815 -0.032567 0.069168 -0.070324 -0.000000 0.000000 0.000000 0.000000 0.000000 0.000000 0.000000 
-10.407283 17.273463 -0.852645 178.588841 88.517989 -156.685752 7.957257 -1.782852 4.545966 0.644792 -2.026966 -2.121912 -6.790447 -2.178381 0.385585 12.937308 6.144687 4.756971 -4.474043 -0.396508 2.998894 0.000000 0.000000 0.000000 -5.164778 -8.383250 1.968505 -68.085220 -9.350165 14.642029 -2.833006 -22.322043 -0.005809 3.742588 1.241270 0.039133 -0.072970 0.078022 0.000000 0.000000 0.000000 0.000000 0.000000 0.000000 0.000000 21.793950 1.867635 0.541963 60.832800 20.156713 -11.163895 3.267178 12.170472 0.007166 -0.528871 6.211940 -0.032461 0.067929 -0.072000 -0.000000 0.000000 0.000000 0.000000 0.000000 0.000000 0.000000 
-10.283510 17.296467 -0.828231 178.721169 88.432415 -156.523575 8.027597 -1.724796 4.640450 0.655844 -1.968209 -2.107483 -6.763869 -2.120383 0.373280 13.037444 6.217619 4.736570 -4.451023 -0.395609 2.992532 0.000000 0.000000 0.000000 -5.274918 -8.297240 1.995117 -68.203704 -8.344208 15.236793 -2.837595 -22.251431 -0.004917 3.039158 1.620476 0.042421 -0.070107 0.071225 0.000000 0.000000 0.000000 0.000000 0.000000 0.000000 0.000000 21.807871 2.043153 0.546837 61.107899 20.640267 -10.651611 3.258704 12.172140 0.007217 -0.546967 6.379054 -0.034352 0.066847 -0.073887 -0.000000 0.000000 0.000000 0.000000 0.000000 0.000000 0.000000 
-10.161752 17.320735 -0.804895 179.010580 88.408252 -156.219172 8.079695 -1.648990 4.756726 0.662965 -1.889571 -2.088685 -6.737355 -2.042268 0.359440 13.114110 6.308902 4.719603 -4.427428 -0.394634 2.986185 0.000000 0.000000 0.000000 -5.421642 -8.161723 2.021844 -68.262603 -7.416328 15.829487 -2.841295 -22.222216 -0.004202 2.408735 1.946152 0.041109 -0.067632 0.064804 0.000000 0.000000 0.000000 0.000000 0.000000 0.000000 0.000000 21.797567 2.254123 0.548898 61.398305 21.085152 -10.059505 3.247835 12.290839 0.007288 -0.543413 6.570154 -0.035044 0.065517 -0.075987 -0.000000 0.000000 0.000000 0.000000 0.000000 0.000000 0.000000 
